<svg width="1440" height="1522" viewBox="0 0 1440 1522" xmlns="http://www.w3.org/2000/svg"><style>
        text {
          font-family: system-ui, sans-serif;
          fill: #000;
        }
        .bg {
          fill: #fff;
        }
        .icon {
          fill: #000;
          opacity: 0.8;
        }

        /* header/sidebar styles */
        .header {
          fill: #f8f8f8;
        }
        .headerDate {
          font-size: 14px;
          font-weight: bold;
        }
        .logoIcon {
          fill: #4660F9;
        }
        .tick {
          fill: #666;
          font-weight: bold;
        }
        .tickLine {
          stroke: #666;
        }
        .sidebarDivider {
          stroke: #ddd;
        }

        /* track styles */
        .boxText {
          opacity: 0.7;
        }
        .date {
          fill: #999;
          font-size: 12px;
        }
        .progressOuter {
          fill: rgba(255,255,255,0.3);
        }
        .progressInner {
          fill: rgba(0,0,0,0.5);
        }
        .closedGroup &gt; text, .closedGroup &gt; use {
          fill: #999;
        }
        .subtext {
          opacity: 0.7;
        }

        /* nested track styles */
        .nestedBox {
          opacity: 0.6;
        }
        .nestedBg {
          fill: #f8f8f8;
        }
      </style><defs><filter id="shadow"><feDropShadow dx="0" dy="1" stdDeviation="1" flood-color="#ccc"></feDropShadow></filter><clipPath id="dont-overlap-sidebar"><rect x="350" y="0" width="1090" height="1522"></rect></clipPath><clipPath id="sidebar-contents"><rect x="0" y="0" width="350" height="1522"></rect></clipPath><linearGradient id="sidebarShadow" x1="0%" y1="0%" x2="100%" y2="0%"><stop offset="0%" style="stop-color: rgb(100, 100, 100); stop-opacity: 0.15;"></stop><stop offset="100%" style="stop-color: rgb(100, 100, 100); stop-opacity: 0;"></stop></linearGradient><path id="projectIcon" d="M4 4v2h8V4zm0-2h8a2 2 0 012 2v2a2 2 0 01-2 2H4a2 2 0 01-2-2V4a2 2 0 012-2zm4 9v2h12v-2zm0-2h12a2 2 0 012 2v2a2 2 0 01-2 2H8a2 2 0 01-2-2v-2a2 2 0 012-2zm-4 9v2h3v-2zm0-2h3a2 2 0 012 2v2a2 2 0 01-2 2H4a2 2 0 01-2-2v-2a2 2 0 012-2z" transform="scale(0.7)"></path><path id="epicIcon" d="M4.667 2A.667.667 0 004 2.667v11.231l3.12-2.738a1.333 1.333 0 011.76 0L12 13.898V2.667A.667.667 0 0011.333 2zM11.333.667a2 2 0 012 2v11.231a1.333 1.333 0 01-2.212 1.003L8 12.163 4.88 14.9a1.333 1.333 0 01-2.213-1.003V2.667a2 2 0 012-2zM9.667 3.333H6v6h4V8H7.333V7h2V5.667h-2v-1h2.334z"></path><path id="epicIconClosed" d="M12 8.04a.667.667 0 111.333 0v5.778a1.333 1.333 0 01-2.234.983L8 11.96 4.901 14.8a1.333 1.333 0 01-2.234-.982V2.667a2 2 0 012-2h3.349a.667.667 0 110 1.333h-3.35A.667.667 0 004 2.667v11.15l3.099-2.84a1.333 1.333 0 011.802 0L12 13.817zM9.805 3.529l.862.862 2.862-2.862a.667.667 0 11.942.942l-3.333 3.334a.667.667 0 01-.943 0L8.862 4.47a.667.667 0 11.943-.942z"></path><path id="zhLogo" d="M11.228 3.727V1.076H.327v2.651h7.229L.168 12.928v2.674h11.22v-2.674h-7.57zm5.644.702c-3.127 0-5.484 2.583-5.484 5.756 0 3.152 2.449 5.735 5.826 5.735 1.835 0 3.376-.748 4.192-1.7l-1.428-1.882a3.686 3.686 0 01-2.651 1.134c-1.678 0-2.833-1.088-3.106-2.607h8.046c.045-.18.068-.566.068-.906 0-3.127-2.358-5.53-5.463-5.53zm-2.605 4.69c.318-1.382 1.269-2.334 2.652-2.334 1.292 0 2.266.793 2.583 2.334h-5.235zm42.975 1.497c0 1.586-.929 2.651-2.312 2.651-1.383 0-2.312-1.065-2.312-2.651v-5.87h-2.766v6.074c0 3.037 2.017 5.055 5.077 5.055s5.078-2.017 5.078-5.055V4.746h-2.765v5.87zM67.894 4.43v-.002c-1.405 0-2.516.566-3.308 1.496V.008H61.82v15.594h2.765v-1.087c.77.884 1.88 1.405 3.308 1.405 3.015 0 5.213-2.47 5.213-5.757 0-3.377-2.334-5.734-5.213-5.734zm-.43 8.884c-1.654 0-2.878-1.383-2.878-3.128s1.224-3.15 2.878-3.15c1.677 0 2.878 1.405 2.878 3.15 0 1.746-1.2 3.128-2.878 3.128zm-38.749-8.9c-2.976 0-4.938 2.018-4.938 5.054v6.075h2.69v-5.87c0-1.587.904-2.652 2.248-2.652 1.344 0 2.247 1.065 2.247 2.651v5.871h2.69V9.468c0-3.037-1.962-5.054-4.937-5.054zm16.376 2.44H38.18v-5.78h-2.834v14.527h2.834V9.505h6.912V15.6h2.855V1.075h-2.855z"></path></defs><rect x="0" y="0" width="1440" height="1522" class="bg"></rect><g class="track"><title>PROYECTO INTEGRADOR</title><g class="" clip-path="url(#sidebar-contents)"><use href="#projectIcon" x="20" y="76" class="icon"></use><text x="40" y="88">PROYECTO INTEGRADOR</text><text x="20" y="106" class="date">Oct 6, 2021 - Feb 4, 2022</text><line x1="0" x2="1440" y1="124" y2="124" stroke="#e7e7e7"></line></g><rect x="401.72008547008545" y="66" width="1458.2051282051282" height="50" rx="2" clip-path="url(#dont-overlap-sidebar)" style="filter: url(&quot;#shadow&quot;); fill: rgb(182, 162, 221);"></rect><g class=""><use href="#projectIcon" x="411.72008547008545" y="81" class="icon"></use><text x="431.72008547008545" y="94" class="boxText" clip-path="url(#dont-overlap-sidebar)">PROYECTO INTEGRADOR<tspan class="subtext"> (0/1)</tspan></text></g><rect x="401.72008547008545" y="110" width="1458.2051282051282" height="6" clip-path="url(#dont-overlap-sidebar)" class="progressOuter"></rect></g><g class="track"><title>Selección de productos </title><rect x="0" y="124" width="1440" height="66" class="nestedBg"></rect><g class="closedGroup" clip-path="url(#sidebar-contents)"><use href="#epicIconClosed" x="40" y="142" class="icon"></use><text x="60" y="154">Selección de productos </text><text x="40" y="172" class="date">Oct 25 - Nov 8</text><line x1="0" x2="1440" y1="190" y2="190" stroke="#e7e7e7"></line></g><rect x="630.6944444444445" y="132" width="168.71794871794873" height="50" rx="2" class="nestedBox" clip-path="url(#dont-overlap-sidebar)" style="filter: url(&quot;#shadow&quot;); fill: rgb(233, 233, 233);"></rect><g class="closedGroup"><use href="#epicIconClosed" x="640.6944444444445" y="147" class="icon"></use><text x="660.6944444444445" y="160" class="boxText" clip-path="url(#dont-overlap-sidebar)">Selección de productos <tspan class="subtext">– Closed</tspan></text></g></g><g class="track"><title>Definición de papa común</title><rect x="0" y="190" width="1440" height="66" class="nestedBg"></rect><g class="" clip-path="url(#sidebar-contents)"><use href="#epicIcon" x="40" y="208" class="icon"></use><text x="60" y="220">Definición de papa común</text><text x="40" y="238" class="date">Nov 8 - Nov 20</text><line x1="0" x2="1440" y1="256" y2="256" stroke="#e7e7e7"></line></g><rect x="799.4123931623932" y="198" width="144.61538461538453" height="50" rx="2" class="nestedBox" clip-path="url(#dont-overlap-sidebar)" style="filter: url(&quot;#shadow&quot;); fill: rgb(182, 162, 221);"></rect><g class=""><use href="#epicIcon" x="809.4123931623932" y="213" class="icon"></use><text x="829.4123931623932" y="226" class="boxText" clip-path="url(#dont-overlap-sidebar)">Definición de papa común<tspan class="subtext"></tspan></text></g></g><g class="track"><title>Definición de tomate largavida</title><rect x="0" y="256" width="1440" height="66" class="nestedBg"></rect><g class="" clip-path="url(#sidebar-contents)"><use href="#epicIcon" x="40" y="274" class="icon"></use><text x="60" y="286">Definición de tomate largavida</text><text x="40" y="304" class="date">Nov 8 - Nov 20</text><line x1="0" x2="1440" y1="322" y2="322" stroke="#e7e7e7"></line></g><rect x="799.4123931623932" y="264" width="144.61538461538453" height="50" rx="2" class="nestedBox" clip-path="url(#dont-overlap-sidebar)" style="filter: url(&quot;#shadow&quot;); fill: rgb(182, 162, 221);"></rect><g class=""><use href="#epicIcon" x="809.4123931623932" y="279" class="icon"></use><text x="829.4123931623932" y="292" class="boxText" clip-path="url(#dont-overlap-sidebar)">Definición de tomate largavida<tspan class="subtext"></tspan></text></g></g><g class="track"><title>Definición de productos</title><rect x="0" y="322" width="1440" height="66" class="nestedBg"></rect><g class="" clip-path="url(#sidebar-contents)"><use href="#epicIcon" x="40" y="340" class="icon"></use><text x="60" y="352">Definición de productos</text><text x="40" y="370" class="date">Nov 8 - Nov 20</text><line x1="0" x2="1440" y1="388" y2="388" stroke="#e7e7e7"></line></g><rect x="799.4123931623932" y="330" width="144.61538461538453" height="50" rx="2" class="nestedBox" clip-path="url(#dont-overlap-sidebar)" style="filter: url(&quot;#shadow&quot;); fill: rgb(182, 162, 221);"></rect><g class=""><use href="#epicIcon" x="809.4123931623932" y="345" class="icon"></use><text x="829.4123931623932" y="358" class="boxText" clip-path="url(#dont-overlap-sidebar)">Definición de productos<tspan class="subtext"> (0/2)</tspan></text></g><rect x="799.4123931623932" y="374" width="144.61538461538453" height="6" clip-path="url(#dont-overlap-sidebar)" class="progressOuter"></rect></g><g class="track"><title>Asignación de roles</title><rect x="0" y="388" width="1440" height="66" class="nestedBg"></rect><g class="" clip-path="url(#sidebar-contents)"><use href="#epicIcon" x="40" y="406" class="icon"></use><text x="60" y="418">Asignación de roles</text><text x="40" y="436" class="date">Nov 18 - Nov 20</text><line x1="0" x2="1440" y1="454" y2="454" stroke="#e7e7e7"></line></g><rect x="919.9252136752136" y="396" width="24.102564102564088" height="50" rx="2" class="nestedBox" clip-path="url(#dont-overlap-sidebar)" style="filter: url(&quot;#shadow&quot;); fill: rgb(182, 162, 221);"></rect><g class=""><use href="#epicIcon" x="929.9252136752136" y="411" class="icon"></use><text x="949.9252136752136" y="424" class="boxText" clip-path="url(#dont-overlap-sidebar)">Asignación de roles<tspan class="subtext"></tspan></text></g></g><g class="track"><title>Definición de los productos finales</title><rect x="0" y="454" width="1440" height="66" class="nestedBg"></rect><g class="" clip-path="url(#sidebar-contents)"><use href="#epicIcon" x="40" y="472" class="icon"></use><text x="60" y="484">Definición de los productos finales</text><text x="40" y="502" class="date">Nov 20 - Nov 24</text><line x1="0" x2="1440" y1="520" y2="520" stroke="#e7e7e7"></line></g><rect x="944.0277777777777" y="462" width="48.20512820512829" height="50" rx="2" class="nestedBox" clip-path="url(#dont-overlap-sidebar)" style="filter: url(&quot;#shadow&quot;); fill: rgb(182, 162, 221);"></rect><g class=""><use href="#epicIcon" x="954.0277777777777" y="477" class="icon"></use><text x="974.0277777777777" y="490" class="boxText" clip-path="url(#dont-overlap-sidebar)">Definición de los productos finales<tspan class="subtext"></tspan></text></g></g><g class="track"><title>Investigación sobre procesos de manufactura</title><rect x="0" y="520" width="1440" height="66" class="nestedBg"></rect><g class="" clip-path="url(#sidebar-contents)"><use href="#epicIcon" x="40" y="538" class="icon"></use><text x="60" y="550">Investigación sobre procesos de manuf…</text><text x="40" y="568" class="date">Nov 8 - Nov 24</text><line x1="0" x2="1440" y1="586" y2="586" stroke="#e7e7e7"></line></g><rect x="799.4123931623932" y="528" width="192.82051282051282" height="50" rx="2" class="nestedBox" clip-path="url(#dont-overlap-sidebar)" style="filter: url(&quot;#shadow&quot;); fill: rgb(182, 162, 221);"></rect><g class=""><use href="#epicIcon" x="809.4123931623932" y="543" class="icon"></use><text x="829.4123931623932" y="556" class="boxText" clip-path="url(#dont-overlap-sidebar)">Investigación sobre procesos de manufactura<tspan class="subtext"></tspan></text></g></g><g class="track"><title>Subir fotos de perfil</title><rect x="0" y="586" width="1440" height="66" class="nestedBg"></rect><g class="" clip-path="url(#sidebar-contents)"><use href="#epicIcon" x="40" y="604" class="icon"></use><text x="60" y="616">Subir fotos de perfil</text><text x="40" y="634" class="date">Nov 24 - Nov 27</text><line x1="0" x2="1440" y1="652" y2="652" stroke="#e7e7e7"></line></g><rect x="992.232905982906" y="594" width="36.15384615384596" height="50" rx="2" class="nestedBox" clip-path="url(#dont-overlap-sidebar)" style="filter: url(&quot;#shadow&quot;); fill: rgb(182, 162, 221);"></rect><g class=""><use href="#epicIcon" x="1002.232905982906" y="609" class="icon"></use><text x="1022.232905982906" y="622" class="boxText" clip-path="url(#dont-overlap-sidebar)">Subir fotos de perfil<tspan class="subtext"></tspan></text></g></g><g class="track"><title>Información del proyecto</title><rect x="0" y="652" width="1440" height="66" class="nestedBg"></rect><g class="" clip-path="url(#sidebar-contents)"><use href="#epicIcon" x="40" y="670" class="icon"></use><text x="60" y="682">Información del proyecto</text><text x="40" y="700" class="date">Nov 24 - Nov 27</text><line x1="0" x2="1440" y1="718" y2="718" stroke="#e7e7e7"></line></g><rect x="992.232905982906" y="660" width="36.15384615384596" height="50" rx="2" class="nestedBox" clip-path="url(#dont-overlap-sidebar)" style="filter: url(&quot;#shadow&quot;); fill: rgb(182, 162, 221);"></rect><g class=""><use href="#epicIcon" x="1002.232905982906" y="675" class="icon"></use><text x="1022.232905982906" y="688" class="boxText" clip-path="url(#dont-overlap-sidebar)">Información del proyecto<tspan class="subtext"> (0/1)</tspan></text></g><rect x="992.232905982906" y="704" width="36.15384615384596" height="6" clip-path="url(#dont-overlap-sidebar)" class="progressOuter"></rect></g><g class="track"><title>Pestaña de diseño de celda</title><rect x="0" y="718" width="1440" height="66" class="nestedBg"></rect><g class="" clip-path="url(#sidebar-contents)"><use href="#epicIcon" x="40" y="736" class="icon"></use><text x="60" y="748">Pestaña de diseño de celda</text><text x="40" y="766" class="date">Nov 24 - Nov 27</text><line x1="0" x2="1440" y1="784" y2="784" stroke="#e7e7e7"></line></g><rect x="992.232905982906" y="726" width="36.15384615384596" height="50" rx="2" class="nestedBox" clip-path="url(#dont-overlap-sidebar)" style="filter: url(&quot;#shadow&quot;); fill: rgb(182, 162, 221);"></rect><g class=""><use href="#epicIcon" x="1002.232905982906" y="741" class="icon"></use><text x="1022.232905982906" y="754" class="boxText" clip-path="url(#dont-overlap-sidebar)">Pestaña de diseño de celda<tspan class="subtext"></tspan></text></g></g><g class="track"><title>Pestaña de ejemplo de aplicación</title><rect x="0" y="784" width="1440" height="66" class="nestedBg"></rect><g class="" clip-path="url(#sidebar-contents)"><use href="#epicIcon" x="40" y="802" class="icon"></use><text x="60" y="814">Pestaña de ejemplo de aplicación</text><text x="40" y="832" class="date">Nov 24 - Nov 27</text><line x1="0" x2="1440" y1="850" y2="850" stroke="#e7e7e7"></line></g><rect x="992.232905982906" y="792" width="36.15384615384596" height="50" rx="2" class="nestedBox" clip-path="url(#dont-overlap-sidebar)" style="filter: url(&quot;#shadow&quot;); fill: rgb(182, 162, 221);"></rect><g class=""><use href="#epicIcon" x="1002.232905982906" y="807" class="icon"></use><text x="1022.232905982906" y="820" class="boxText" clip-path="url(#dont-overlap-sidebar)">Pestaña de ejemplo de aplicación<tspan class="subtext"></tspan></text></g></g><g class="track"><title>Definición de etapas de manufactura</title><rect x="0" y="850" width="1440" height="66" class="nestedBg"></rect><g class="" clip-path="url(#sidebar-contents)"><use href="#epicIcon" x="40" y="868" class="icon"></use><text x="60" y="880">Definición de etapas de manufactura</text><text x="40" y="898" class="date">Nov 24 - Nov 27</text><line x1="0" x2="1440" y1="916" y2="916" stroke="#e7e7e7"></line></g><rect x="992.232905982906" y="858" width="36.15384615384596" height="50" rx="2" class="nestedBox" clip-path="url(#dont-overlap-sidebar)" style="filter: url(&quot;#shadow&quot;); fill: rgb(182, 162, 221);"></rect><g class=""><use href="#epicIcon" x="1002.232905982906" y="873" class="icon"></use><text x="1022.232905982906" y="886" class="boxText" clip-path="url(#dont-overlap-sidebar)">Definición de etapas de manufactura<tspan class="subtext"></tspan></text></g></g><g class="track"><title>Definición del proyecto</title><rect x="0" y="916" width="1440" height="66" class="nestedBg"></rect><g class="" clip-path="url(#sidebar-contents)"><use href="#epicIcon" x="40" y="934" class="icon"></use><text x="60" y="946">Definición del proyecto</text><text x="40" y="964" class="date">Oct 6 - Nov 27</text><line x1="0" x2="1440" y1="982" y2="982" stroke="#e7e7e7"></line></g><rect x="401.72008547008545" y="924" width="626.6666666666665" height="50" rx="2" class="nestedBox" clip-path="url(#dont-overlap-sidebar)" style="filter: url(&quot;#shadow&quot;); fill: rgb(182, 162, 221);"></rect><g class=""><use href="#epicIcon" x="411.72008547008545" y="939" class="icon"></use><text x="431.72008547008545" y="952" class="boxText" clip-path="url(#dont-overlap-sidebar)">Definición del proyecto<tspan class="subtext"> (1/7)</tspan></text></g><rect x="401.72008547008545" y="968" width="626.6666666666665" height="6" clip-path="url(#dont-overlap-sidebar)" class="progressOuter"></rect><rect x="401.72008547008545" y="968" width="89.5238095238095" height="6" clip-path="url(#dont-overlap-sidebar)" class="progressInner"></rect></g><g class="track"><title>Taller 1 - Diseño de celdas robotizadas</title><rect x="0" y="982" width="1440" height="66" class="nestedBg"></rect><g class="" clip-path="url(#sidebar-contents)"><use href="#epicIcon" x="40" y="1000" class="icon"></use><text x="60" y="1012">Taller 1 - Diseño de celdas robotizad…</text><text x="40" y="1030" class="date">Nov 28 - Nov 29</text><line x1="0" x2="1440" y1="1048" y2="1048" stroke="#e7e7e7"></line></g><rect x="1040.4380341880342" y="990" width="12.051282051282215" height="50" rx="2" class="nestedBox" clip-path="url(#dont-overlap-sidebar)" style="filter: url(&quot;#shadow&quot;); fill: rgb(182, 162, 221);"></rect><g class=""><use href="#epicIcon" x="1050.4380341880342" y="1005" class="icon"></use><text x="1070.4380341880342" y="1018" class="boxText" clip-path="url(#dont-overlap-sidebar)">Taller 1 - Diseño de celdas robotizadas<tspan class="subtext"> (0/6)</tspan></text></g><rect x="1040.4380341880342" y="1034" width="12.051282051282215" height="6" clip-path="url(#dont-overlap-sidebar)" class="progressOuter"></rect></g><g class="track"><title>Diseño de celda robotizada</title><rect x="0" y="1048" width="1440" height="66" class="nestedBg"></rect><g class="" clip-path="url(#sidebar-contents)"><use href="#epicIcon" x="40" y="1066" class="icon"></use><text x="60" y="1078">Diseño de celda robotizada</text><text x="40" y="1096" class="date">Nov 24 - Nov 29</text><line x1="0" x2="1440" y1="1114" y2="1114" stroke="#e7e7e7"></line></g><rect x="992.232905982906" y="1056" width="60.25641025641039" height="50" rx="2" class="nestedBox" clip-path="url(#dont-overlap-sidebar)" style="filter: url(&quot;#shadow&quot;); fill: rgb(182, 162, 221);"></rect><g class=""><use href="#epicIcon" x="1002.232905982906" y="1071" class="icon"></use><text x="1022.232905982906" y="1084" class="boxText" clip-path="url(#dont-overlap-sidebar)">Diseño de celda robotizada<tspan class="subtext"></tspan></text></g></g><g class="track"><title>Diseño básico de la página web</title><rect x="0" y="1114" width="1440" height="66" class="nestedBg"></rect><g class="" clip-path="url(#sidebar-contents)"><use href="#epicIcon" x="40" y="1132" class="icon"></use><text x="60" y="1144">Diseño básico de la página web</text><text x="40" y="1162" class="date">Nov 20 - Dec 1</text><line x1="0" x2="1440" y1="1180" y2="1180" stroke="#e7e7e7"></line></g><rect x="944.0277777777777" y="1122" width="132.56410256410265" height="50" rx="2" class="nestedBox" clip-path="url(#dont-overlap-sidebar)" style="filter: url(&quot;#shadow&quot;); fill: rgb(182, 162, 221);"></rect><g class=""><use href="#epicIcon" x="954.0277777777777" y="1137" class="icon"></use><text x="974.0277777777777" y="1150" class="boxText" clip-path="url(#dont-overlap-sidebar)">Diseño básico de la página web<tspan class="subtext"> (0/4)</tspan></text></g><rect x="944.0277777777777" y="1166" width="132.56410256410265" height="6" clip-path="url(#dont-overlap-sidebar)" class="progressOuter"></rect></g><g class="track"><title>Obtención de KPIs antes de automatización</title><rect x="0" y="1180" width="1440" height="66" class="nestedBg"></rect><g class="" clip-path="url(#sidebar-contents)"><use href="#epicIcon" x="40" y="1198" class="icon"></use><text x="60" y="1210">Obtención de KPIs antes de automatiza…</text><text x="40" y="1228" class="date">Nov 29 - Dec 3</text><line x1="0" x2="1440" y1="1246" y2="1246" stroke="#e7e7e7"></line></g><rect x="1052.4893162393164" y="1188" width="48.20512820512795" height="50" rx="2" class="nestedBox" clip-path="url(#dont-overlap-sidebar)" style="filter: url(&quot;#shadow&quot;); fill: rgb(182, 162, 221);"></rect><g class=""><use href="#epicIcon" x="1062.4893162393164" y="1203" class="icon"></use><text x="1082.4893162393164" y="1216" class="boxText" clip-path="url(#dont-overlap-sidebar)">Obtención de KPIs antes de automatización<tspan class="subtext"></tspan></text></g></g><g class="track"><title>Obtención de datos para análisis de planta antes de automatización</title><rect x="0" y="1246" width="1440" height="66" class="nestedBg"></rect><g class="" clip-path="url(#sidebar-contents)"><use href="#epicIcon" x="40" y="1264" class="icon"></use><text x="60" y="1276">Obtención de datos para análisis de p…</text><text x="40" y="1294" class="date">Nov 27 - Dec 8</text><line x1="0" x2="1440" y1="1312" y2="1312" stroke="#e7e7e7"></line></g><rect x="1028.386752136752" y="1254" width="132.56410256410277" height="50" rx="2" class="nestedBox" clip-path="url(#dont-overlap-sidebar)" style="filter: url(&quot;#shadow&quot;); fill: rgb(182, 162, 221);"></rect><g class=""><use href="#epicIcon" x="1038.386752136752" y="1269" class="icon"></use><text x="1058.386752136752" y="1282" class="boxText" clip-path="url(#dont-overlap-sidebar)">Obtención de datos para análisis de planta antes de automatización<tspan class="subtext"></tspan></text></g></g><g class="track"><title>Preparar página web para sustentación intermedia</title><rect x="0" y="1312" width="1440" height="66" class="nestedBg"></rect><g class="" clip-path="url(#sidebar-contents)"><use href="#epicIcon" x="40" y="1330" class="icon"></use><text x="60" y="1342">Preparar página web para sustentación…</text><text x="40" y="1360" class="date">Dec 4 - Dec 11</text><line x1="0" x2="1440" y1="1378" y2="1378" stroke="#e7e7e7"></line></g><rect x="1112.7457264957266" y="1320" width="84.35897435897436" height="50" rx="2" class="nestedBox" clip-path="url(#dont-overlap-sidebar)" style="filter: url(&quot;#shadow&quot;); fill: rgb(182, 162, 221);"></rect><g class=""><use href="#epicIcon" x="1122.7457264957266" y="1335" class="icon"></use><text x="1142.7457264957266" y="1348" class="boxText" clip-path="url(#dont-overlap-sidebar)">Preparar página web para sustentación intermedia<tspan class="subtext"></tspan></text></g></g><g class="track"><title>Sustentación intermedia</title><rect x="0" y="1378" width="1440" height="66" class="nestedBg"></rect><g class="" clip-path="url(#sidebar-contents)"><use href="#epicIcon" x="40" y="1396" class="icon"></use><text x="60" y="1408">Sustentación intermedia</text><text x="40" y="1426" class="date">Dec 12 - Dec 18</text><line x1="0" x2="1440" y1="1444" y2="1444" stroke="#e7e7e7"></line></g><rect x="1209.155982905983" y="1386" width="72.30769230769238" height="50" rx="2" class="nestedBox" clip-path="url(#dont-overlap-sidebar)" style="filter: url(&quot;#shadow&quot;); fill: rgb(182, 162, 221);"></rect><g class=""><use href="#epicIcon" x="1219.155982905983" y="1401" class="icon"></use><text x="1239.155982905983" y="1414" class="boxText" clip-path="url(#dont-overlap-sidebar)">Sustentación intermedia<tspan class="subtext"></tspan></text></g></g><g class="track"><title>Página Web</title><rect x="0" y="1444" width="1440" height="66" class="nestedBg"></rect><g class="" clip-path="url(#sidebar-contents)"><use href="#epicIcon" x="40" y="1462" class="icon"></use><text x="60" y="1474">Página Web</text><text x="40" y="1492" class="date">Nov 4, 2021 - Feb 4, 2022</text><line x1="0" x2="1440" y1="1510" y2="1510" stroke="#e7e7e7"></line></g><rect x="751.2072649572649" y="1452" width="1108.7179487179487" height="50" rx="2" class="nestedBox" clip-path="url(#dont-overlap-sidebar)" style="filter: url(&quot;#shadow&quot;); fill: rgb(182, 162, 221);"></rect><g class=""><use href="#epicIcon" x="761.2072649572649" y="1467" class="icon"></use><text x="781.2072649572649" y="1480" class="boxText" clip-path="url(#dont-overlap-sidebar)">Página Web<tspan class="subtext"> (0/6)</tspan></text></g><rect x="751.2072649572649" y="1496" width="1108.7179487179487" height="6" clip-path="url(#dont-overlap-sidebar)" class="progressOuter"></rect></g><g><rect x="0" y="0" width="1440" height="62" class="header" style="filter: url(&quot;#shadow&quot;);"></rect><a href="https://www.zenhub.com"><use href="#zhLogo" x="20" y="12" class="logoIcon"></use></a><text x="20" y="45" class="headerDate">December 1, 2021</text></g><g clip-path="url(#dont-overlap-sidebar)"><text x="350" y="30" class="tick">October 2021</text><text x="723.5897435897436" y="30" class="tick">November 2021</text><text x="1085.128205128205" y="30" class="tick">December 2021</text><text x="1458.7179487179487" y="30" class="tick">January 2022</text>;</g><rect x="350" y="0" width="20" height="1522" fill="url(#sidebarShadow)"></rect><line x1="350" x2="350" y1="50" y2="1522" class="sidebarDivider"></line></svg>